<svg width="50" height="50" viewBox="0 0 50 50" fill="none" xmlns="http://www.w3.org/2000/svg">
<g clip-path="url(#clip0_322_174)">
<path d="M6.25 25H8.33333M25 6.25V8.33333M41.6667 25H43.75M11.6667 11.6667L13.125 13.125M38.3333 11.6667L36.875 13.125" stroke="#021721" stroke-width="2.5" stroke-linecap="round" stroke-linejoin="round"/>
<path d="M18.7502 33.333C17.0011 32.0212 15.7092 30.1924 15.0573 28.1056C14.4054 26.0188 14.4267 23.7797 15.118 21.7056C15.8094 19.6316 17.1358 17.8276 18.9094 16.5492C20.683 15.2709 22.8139 14.583 25.0002 14.583C27.1864 14.583 29.3173 15.2709 31.0909 16.5492C32.8645 17.8276 34.1909 19.6316 34.8823 21.7056C35.5736 23.7797 35.5949 26.0188 34.943 28.1056C34.2911 30.1924 32.9992 32.0212 31.2502 33.333C30.4368 34.1382 29.8243 35.1235 29.4624 36.2093C29.1005 37.2951 28.9992 38.4508 29.1668 39.583C29.1668 40.6881 28.7278 41.7479 27.9464 42.5293C27.165 43.3107 26.1052 43.7497 25.0002 43.7497C23.8951 43.7497 22.8353 43.3107 22.0539 42.5293C21.2725 41.7479 20.8335 40.6881 20.8335 39.583C21.0011 38.4508 20.8999 37.2951 20.5379 36.2093C20.176 35.1235 19.5636 34.1382 18.7502 33.333Z" stroke="#021721" stroke-width="2.5" stroke-linecap="round" stroke-linejoin="round"/>
<path d="M20.2085 35.417H29.7918" stroke="#021721" stroke-width="2.5" stroke-linecap="round" stroke-linejoin="round"/>
</g>
<defs>
<clipPath id="clip0_322_174">
<rect width="50" height="50" fill="white"/>
</clipPath>
</defs>
</svg>
