<svg width="50" height="50" viewBox="0 0 50 50" fill="none" xmlns="http://www.w3.org/2000/svg">
<g clip-path="url(#clip0_322_185)">
<path d="M10.4167 25H6.25L25 6.25L43.75 25H39.5833" stroke="#021721" stroke-width="2.5" stroke-linecap="round" stroke-linejoin="round"/>
<path d="M10.4165 25V39.5833C10.4165 40.6884 10.8555 41.7482 11.6369 42.5296C12.4183 43.311 13.4781 43.75 14.5832 43.75H35.4165C36.5216 43.75 37.5814 43.311 38.3628 42.5296C39.1442 41.7482 39.5832 40.6884 39.5832 39.5833V25" stroke="#021721" stroke-width="2.5" stroke-linecap="round" stroke-linejoin="round"/>
<path d="M18.75 43.7497V31.2497C18.75 30.1446 19.189 29.0848 19.9704 28.3034C20.7518 27.522 21.8116 27.083 22.9167 27.083H27.0833C28.1884 27.083 29.2482 27.522 30.0296 28.3034C30.811 29.0848 31.25 30.1446 31.25 31.2497V43.7497" stroke="#021721" stroke-width="2.5" stroke-linecap="round" stroke-linejoin="round"/>
</g>
<defs>
<clipPath id="clip0_322_185">
<rect width="50" height="50" fill="white"/>
</clipPath>
</defs>
</svg>
