<svg width="50" height="50" viewBox="0 0 50 50" fill="none" xmlns="http://www.w3.org/2000/svg">
<g clip-path="url(#clip0_322_180)">
<path d="M20.8332 28.125C19.2445 29.0422 18.0029 30.458 17.3008 32.1528C16.5988 33.8477 16.4757 35.7268 16.9505 37.4987C17.4252 39.2706 18.4715 40.8364 19.9268 41.9532C21.3822 43.0699 23.1654 43.6752 24.9998 43.6752C26.8343 43.6752 28.6175 43.0699 30.0729 41.9532C31.5282 40.8364 32.5744 39.2706 33.0492 37.4987C33.524 35.7268 33.4009 33.8477 32.6988 32.1528C31.9968 30.458 30.7552 29.0422 29.1665 28.125V10.4167C29.1665 9.3116 28.7275 8.25179 27.9461 7.47039C27.1647 6.68899 26.1049 6.25 24.9998 6.25C23.8948 6.25 22.835 6.68899 22.0536 7.47039C21.2722 8.25179 20.8332 9.3116 20.8332 10.4167V28.125Z" stroke="#021721" stroke-width="2.5" stroke-linecap="round" stroke-linejoin="round"/>
<path d="M20.8335 18.75H29.1668" stroke="#021721" stroke-width="2.5" stroke-linecap="round" stroke-linejoin="round"/>
</g>
<defs>
<clipPath id="clip0_322_180">
<rect width="50" height="50" fill="white"/>
</clipPath>
</defs>
</svg>
